<svg id="svg" version="1.1" xmlns="http://www.w3.org/2000/svg" xmlns:xlink="http://www.w3.org/1999/xlink" width="400" height="400" viewBox="0, 0, 400,400"><g id="svgg"><path id="path0" d="M353.088 47.724 C 353.251 48.579,353.510 48.794,354.347 48.768 C 354.954 48.750,355.146 48.645,354.800 48.520 C 354.470 48.401,353.903 47.931,353.541 47.476 C 352.891 46.659,352.885 46.663,353.088 47.724 M42.243 53.771 C 42.109 54.305,41.685 54.824,41.300 54.924 C 40.870 55.037,41.024 55.125,41.700 55.154 C 42.666 55.194,42.800 55.054,42.800 54.000 C 42.800 52.549,42.573 52.456,42.243 53.771 M357.232 53.900 C 357.204 55.028,357.332 55.200,358.200 55.200 C 359.183 55.200,359.200 55.253,359.200 58.400 C 359.200 61.492,359.338 61.835,360.509 61.644 C 360.679 61.617,360.999 62.070,361.220 62.653 C 361.680 63.863,361.786 63.823,362.151 62.300 C 362.363 61.417,362.275 61.198,361.708 61.187 C 360.410 61.164,359.517 59.367,359.665 57.079 C 359.787 55.196,359.717 54.988,358.925 54.875 C 358.404 54.801,357.891 54.316,357.657 53.675 L 357.263 52.600 357.232 53.900 M40.294 57.338 C 40.537 59.491,39.675 61.200,38.348 61.200 C 37.752 61.200,37.584 61.380,37.757 61.833 C 37.891 62.181,38.000 62.731,38.000 63.056 C 38.000 63.381,38.180 63.536,38.400 63.400 C 38.620 63.264,38.800 62.803,38.800 62.376 C 38.800 61.815,39.077 61.600,39.800 61.600 C 40.860 61.600,41.335 57.463,40.437 56.046 C 40.221 55.706,40.166 56.204,40.294 57.338 M363.200 59.765 C 363.200 59.872,363.679 60.463,364.265 61.079 C 364.987 61.839,365.245 61.964,365.065 61.467 C 364.919 61.064,364.800 60.666,364.800 60.581 C 364.800 60.497,364.440 60.235,364.000 60.000 C 363.560 59.765,363.200 59.659,363.200 59.765 M365.524 195.600 C 365.633 311.843,365.503 340.957,364.893 337.291 L 364.742 336.383 363.995 337.291 C 363.286 338.154,363.249 338.159,363.268 337.400 C 363.278 336.960,363.091 335.646,362.850 334.481 C 362.540 332.975,362.408 293.601,362.393 198.366 C 362.381 121.319,362.223 64.462,362.020 64.587 C 361.827 64.707,361.577 64.579,361.466 64.302 C 361.354 64.026,361.249 125.122,361.232 200.071 C 361.198 345.000,361.287 337.600,359.571 337.600 C 359.367 337.600,359.200 338.847,359.200 340.371 C 359.200 343.014,358.655 344.400,357.617 344.400 C 357.438 344.400,357.168 345.219,357.018 346.220 C 356.809 347.612,356.529 348.123,355.827 348.390 C 355.322 348.582,354.808 349.126,354.684 349.599 C 354.561 350.072,354.103 350.553,353.667 350.667 C 353.231 350.781,352.781 351.231,352.667 351.667 C 352.553 352.103,352.108 352.551,351.678 352.664 C 351.249 352.776,350.699 353.303,350.457 353.834 C 350.215 354.365,349.745 354.800,349.412 354.800 C 349.079 354.800,348.580 355.165,348.303 355.610 C 348.027 356.056,347.080 356.612,346.200 356.846 C 345.320 357.080,344.186 357.655,343.681 358.124 C 342.964 358.788,342.125 359.010,339.881 359.131 C 337.956 359.234,336.754 359.504,336.258 359.943 C 335.071 360.994,64.873 360.952,63.710 359.900 C 63.167 359.409,62.269 359.200,60.695 359.200 C 58.322 359.200,56.548 358.707,55.833 357.850 C 55.595 357.565,54.625 357.112,53.679 356.843 C 52.732 356.575,51.853 356.082,51.724 355.747 C 51.596 355.412,51.048 354.970,50.507 354.765 C 49.965 354.559,49.432 354.043,49.321 353.618 C 49.209 353.193,48.732 352.790,48.259 352.722 C 47.730 352.647,47.352 352.264,47.275 351.725 C 47.198 351.179,46.821 350.802,46.275 350.725 C 45.714 350.645,45.353 350.269,45.269 349.678 C 45.196 349.163,44.736 348.604,44.224 348.409 C 43.325 348.067,42.816 346.986,42.805 345.395 C 42.802 344.947,42.401 344.414,41.900 344.195 C 41.108 343.847,40.986 343.463,40.884 340.988 C 40.783 338.529,40.658 338.127,39.884 337.788 L 39.000 337.400 38.899 200.672 C 38.811 81.007,38.726 64.017,38.217 64.526 C 37.710 65.033,37.631 82.343,37.609 198.744 C 37.592 283.566,37.441 333.130,37.194 334.432 C 36.980 335.561,36.904 336.645,37.026 336.842 C 37.438 337.509,36.771 338.074,36.164 337.570 C 35.714 337.196,35.600 337.249,35.600 337.831 C 35.600 338.414,35.500 338.460,35.100 338.060 C 34.703 337.663,34.559 309.924,34.400 203.119 C 34.238 94.127,34.104 68.793,33.690 69.291 C 32.716 70.465,32.966 348.693,33.942 349.764 C 34.412 350.279,34.777 351.411,34.895 352.713 C 35.019 354.088,35.372 355.136,35.907 355.713 C 36.359 356.201,36.926 357.345,37.168 358.256 C 37.432 359.252,38.005 360.173,38.604 360.566 C 39.298 361.021,39.600 361.581,39.600 362.417 C 39.600 364.005,44.041 368.553,46.164 369.139 C 46.961 369.359,48.300 370.263,49.169 371.168 C 50.298 372.343,51.063 372.800,51.899 372.800 C 52.605 372.800,53.411 373.173,53.953 373.750 C 54.912 374.771,56.381 375.133,61.230 375.543 C 63.320 375.720,64.476 376.017,64.958 376.500 C 66.046 377.589,333.954 377.589,335.042 376.500 C 335.524 376.017,336.680 375.720,338.770 375.543 C 343.619 375.133,345.088 374.771,346.047 373.750 C 346.589 373.173,347.395 372.800,348.101 372.800 C 348.937 372.800,349.702 372.343,350.831 371.168 C 351.700 370.263,353.039 369.359,353.836 369.139 C 355.959 368.553,360.400 364.005,360.400 362.417 C 360.400 361.581,360.702 361.021,361.396 360.566 C 361.995 360.173,362.568 359.252,362.832 358.256 C 363.074 357.345,363.602 356.240,364.006 355.800 C 364.410 355.360,364.868 354.460,365.023 353.800 C 365.178 353.140,365.646 352.224,366.062 351.764 C 367.098 350.620,367.272 68.384,366.237 67.241 C 365.917 66.888,365.598 65.789,365.528 64.799 C 365.458 63.810,365.456 122.670,365.524 195.600 M34.501 65.400 C 34.505 66.280,34.587 66.593,34.683 66.095 C 34.779 65.598,34.775 64.878,34.675 64.495 C 34.575 64.113,34.496 64.520,34.501 65.400 M115.062 117.131 C 114.495 117.758,114.401 118.945,114.405 125.431 C 114.413 135.959,113.167 134.736,124.028 134.879 C 132.176 134.987,133.251 135.078,133.887 135.714 C 134.565 136.393,134.610 140.125,134.800 210.953 C 134.965 272.473,135.094 285.590,135.537 286.124 C 136.088 286.788,137.341 285.686,142.709 279.814 C 146.062 276.146,154.356 267.265,156.213 265.356 C 157.306 264.232,160.000 261.386,162.200 259.031 C 164.400 256.676,167.550 253.334,169.200 251.603 C 174.466 246.080,184.863 235.000,189.606 229.855 C 190.593 228.785,193.290 225.955,195.600 223.566 C 197.910 221.176,200.700 218.247,201.800 217.056 C 204.481 214.152,212.949 205.109,217.400 200.395 C 219.380 198.298,223.160 194.273,225.800 191.449 C 228.440 188.625,232.490 184.353,234.800 181.955 C 237.110 179.557,240.350 176.122,242.000 174.323 C 245.308 170.717,249.456 166.287,255.218 160.212 C 257.298 158.018,259.720 155.454,260.600 154.514 C 265.193 149.607,270.553 143.954,273.400 141.016 C 275.160 139.199,278.130 136.024,280.000 133.960 C 283.133 130.501,286.124 127.319,292.711 120.437 C 296.698 116.272,298.757 116.615,269.080 116.497 C 240.004 116.382,242.344 116.149,238.849 119.504 C 235.263 122.947,225.006 132.576,221.600 135.697 C 216.244 140.606,211.764 144.751,209.816 146.600 C 208.657 147.700,205.766 150.400,203.392 152.600 C 201.018 154.800,198.141 157.500,196.999 158.600 C 195.856 159.700,194.039 161.407,192.961 162.394 C 191.882 163.380,189.636 165.450,187.969 166.994 C 186.302 168.537,183.086 171.510,180.821 173.600 C 176.839 177.275,173.757 180.165,170.000 183.748 C 163.724 189.733,164.239 192.517,163.992 151.286 C 163.878 132.209,163.743 116.555,163.692 116.500 C 163.117 115.877,115.640 116.493,115.062 117.131 M38.532 343.034 C 38.160 344.002,37.682 342.951,37.922 341.695 C 38.118 340.668,38.132 340.664,38.449 341.521 C 38.628 342.005,38.665 342.686,38.532 343.034 " stroke="none" fill="#0b0b0b" fill-rule="evenodd"></path><path id="path1" d="M64.539 34.695 C 62.602 34.806,61.852 35.045,61.018 35.818 C 60.195 36.581,59.525 36.800,58.010 36.800 C 56.515 36.800,55.785 37.033,54.873 37.800 C 54.219 38.350,53.330 38.800,52.897 38.800 C 52.464 38.800,51.439 39.333,50.620 39.984 C 49.800 40.635,48.786 41.278,48.365 41.411 C 47.944 41.545,47.600 41.917,47.600 42.240 C 47.600 42.562,47.285 42.941,46.900 43.083 C 45.994 43.418,43.418 45.994,43.083 46.900 C 42.941 47.285,42.562 47.600,42.240 47.600 C 41.917 47.600,41.545 47.944,41.411 48.365 C 41.278 48.786,40.635 49.800,39.984 50.620 C 39.333 51.439,38.800 52.464,38.800 52.897 C 38.800 53.330,38.350 54.219,37.800 54.873 C 37.033 55.785,36.800 56.515,36.800 58.010 C 36.800 59.534,36.582 60.194,35.800 61.038 C 34.751 62.169,34.457 64.141,35.263 64.639 C 35.586 64.839,35.651 64.639,35.478 63.977 C 35.213 62.962,36.113 61.600,37.049 61.600 C 37.353 61.600,37.477 61.346,37.343 60.997 C 37.216 60.665,37.249 59.720,37.415 58.897 C 37.701 57.484,37.735 57.456,38.019 58.400 C 38.215 59.051,38.334 59.156,38.360 58.700 C 38.382 58.315,38.561 58.000,38.757 58.000 C 39.396 58.000,39.627 56.715,39.107 56.049 C 38.653 55.468,38.675 55.459,39.318 55.964 C 39.728 56.286,39.934 56.796,39.797 57.152 C 39.665 57.495,39.702 57.630,39.879 57.452 C 40.055 57.274,40.200 56.659,40.200 56.086 C 40.200 55.315,40.461 54.969,41.200 54.761 C 41.750 54.606,41.939 54.462,41.620 54.440 C 41.169 54.409,41.147 54.293,41.520 53.920 C 41.784 53.656,42.000 53.026,42.000 52.520 C 42.000 51.953,42.240 51.600,42.624 51.600 C 43.013 51.600,43.134 51.784,42.945 52.089 C 42.779 52.358,42.694 53.278,42.755 54.133 C 42.820 55.026,42.708 55.590,42.493 55.457 C 42.287 55.330,41.820 55.445,41.455 55.713 C 40.678 56.285,40.418 330.832,41.189 336.916 C 42.301 345.684,52.093 354.574,62.831 356.564 C 67.959 357.515,332.125 357.539,337.131 356.589 C 347.408 354.640,354.798 347.150,357.149 336.302 L 357.994 332.403 358.003 198.586 C 358.008 118.602,357.865 64.494,357.646 64.084 C 357.445 63.708,357.152 61.600,356.994 59.400 C 356.836 57.200,356.542 55.085,356.339 54.700 C 356.137 54.315,356.103 54.000,356.262 54.000 C 356.422 54.000,356.238 53.770,355.853 53.488 C 355.386 53.147,355.128 52.360,355.077 51.121 C 355.034 50.101,354.836 49.116,354.636 48.933 C 354.419 48.735,354.409 48.842,354.613 49.200 C 354.907 49.717,354.860 49.724,354.277 49.251 C 353.905 48.949,353.579 48.859,353.553 49.051 C 353.527 49.243,353.390 48.860,353.250 48.200 C 353.074 47.373,352.724 46.961,352.122 46.875 C 351.580 46.798,351.202 46.420,351.125 45.878 C 351.039 45.276,350.627 44.926,349.800 44.750 L 348.600 44.495 349.910 44.447 C 350.961 44.409,351.295 44.597,351.600 45.400 C 351.809 45.950,352.259 46.400,352.600 46.400 C 352.941 46.400,353.382 46.825,353.579 47.345 C 353.777 47.865,354.312 48.388,354.769 48.508 C 355.384 48.669,355.600 49.046,355.600 49.963 C 355.600 51.291,356.223 51.653,356.524 50.500 C 356.662 49.973,356.719 50.023,356.754 50.700 C 356.780 51.213,357.058 51.600,357.400 51.600 C 357.781 51.600,358.010 52.001,358.028 52.700 C 358.053 53.675,358.095 53.709,358.400 53.000 C 358.707 52.286,358.747 52.278,358.772 52.924 C 358.787 53.322,358.978 53.537,359.195 53.403 C 359.431 53.257,359.484 53.438,359.326 53.849 C 359.113 54.403,359.213 54.481,359.831 54.246 C 360.421 54.021,360.491 54.063,360.131 54.425 C 359.525 55.037,359.897 56.014,360.630 55.733 C 360.940 55.614,361.308 55.816,361.448 56.181 C 361.606 56.593,361.950 56.752,362.352 56.599 C 362.836 56.415,362.885 56.468,362.547 56.809 C 361.935 57.426,362.651 59.876,363.831 61.200 C 364.321 61.750,364.809 62.560,364.915 63.000 C 365.099 63.766,365.109 63.764,365.154 62.958 C 365.179 62.496,364.750 61.631,364.200 61.038 C 363.418 60.194,363.200 59.534,363.200 58.010 C 363.200 56.515,362.967 55.785,362.200 54.873 C 361.650 54.219,361.200 53.330,361.200 52.897 C 361.200 52.464,360.667 51.439,360.016 50.620 C 359.365 49.800,358.722 48.786,358.589 48.365 C 358.455 47.944,358.083 47.600,357.760 47.600 C 357.438 47.600,357.059 47.285,356.917 46.900 C 356.582 45.994,354.006 43.418,353.100 43.083 C 352.715 42.941,352.400 42.562,352.400 42.240 C 352.400 41.917,352.056 41.545,351.635 41.411 C 351.214 41.278,350.200 40.635,349.380 39.984 C 348.561 39.333,347.536 38.800,347.103 38.800 C 346.670 38.800,345.781 38.350,345.127 37.800 C 344.215 37.033,343.485 36.800,341.990 36.800 C 340.499 36.800,339.803 36.579,339.027 35.860 C 338.175 35.071,337.428 34.879,334.345 34.660 C 330.654 34.398,69.131 34.432,64.539 34.695 M63.056 38.000 C 63.381 38.000,63.536 38.180,63.400 38.400 C 63.264 38.620,62.803 38.800,62.376 38.800 C 61.815 38.800,61.600 39.077,61.600 39.800 C 61.600 40.783,61.547 40.800,58.400 40.800 C 55.253 40.800,55.200 40.817,55.200 41.800 C 55.200 42.668,55.028 42.796,53.900 42.768 L 52.600 42.737 53.675 42.343 C 54.316 42.109,54.801 41.596,54.875 41.075 C 54.989 40.280,55.194 40.213,57.112 40.338 C 59.536 40.496,61.200 39.686,61.200 38.348 C 61.200 37.752,61.380 37.584,61.833 37.757 C 62.181 37.891,62.731 38.000,63.056 38.000 M338.800 38.391 C 338.800 39.688,340.492 40.494,342.888 40.338 C 344.806 40.213,345.011 40.280,345.125 41.075 C 345.199 41.596,345.684 42.109,346.325 42.343 L 347.400 42.737 346.100 42.768 C 344.972 42.796,344.800 42.668,344.800 41.800 C 344.800 40.817,344.747 40.800,341.600 40.800 C 338.453 40.800,338.400 40.783,338.400 39.800 C 338.400 39.077,338.185 38.800,337.624 38.800 C 337.197 38.800,336.744 38.633,336.618 38.429 C 336.420 38.109,336.755 37.971,338.500 37.654 C 338.665 37.625,338.800 37.956,338.800 38.391 M50.200 44.750 C 49.360 44.929,48.962 45.274,48.872 45.903 C 48.780 46.551,48.475 46.800,47.772 46.800 C 47.009 46.800,46.800 47.009,46.800 47.772 C 46.800 48.475,46.551 48.780,45.903 48.872 C 45.274 48.962,44.929 49.360,44.750 50.200 L 44.495 51.400 44.447 50.063 C 44.411 49.023,44.585 48.677,45.231 48.508 C 45.688 48.388,46.223 47.865,46.421 47.345 C 46.618 46.825,47.059 46.400,47.400 46.400 C 47.741 46.400,48.191 45.950,48.400 45.400 C 48.705 44.597,49.039 44.409,50.090 44.447 L 51.400 44.495 50.200 44.750 M34.424 68.000 C 34.424 69.142,34.499 69.271,34.832 68.700 C 35.109 68.225,35.109 67.775,34.832 67.300 C 34.499 66.729,34.424 66.858,34.424 68.000 M164.624 114.568 C 165.380 115.121,165.403 116.007,165.507 149.316 L 165.613 183.496 166.761 183.248 C 167.747 183.035,170.605 180.627,176.433 175.100 C 177.071 174.495,177.774 174.000,177.996 174.000 C 178.218 174.000,178.400 173.736,178.400 173.414 C 178.400 173.092,178.736 172.649,179.146 172.429 C 179.556 172.209,181.253 170.718,182.917 169.115 C 184.581 167.512,186.180 165.984,186.471 165.719 C 186.762 165.455,187.219 165.005,187.487 164.719 C 187.754 164.434,189.064 163.210,190.396 162.000 C 191.728 160.790,193.849 158.829,195.109 157.643 C 196.369 156.456,199.560 153.495,202.200 151.062 C 204.840 148.630,207.385 146.271,207.855 145.820 C 211.722 142.112,213.218 140.800,213.579 140.800 C 213.811 140.800,214.000 140.536,214.000 140.214 C 214.000 139.892,214.335 139.449,214.744 139.230 C 215.153 139.011,217.317 137.070,219.552 134.916 C 221.787 132.762,225.097 129.621,226.908 127.935 C 228.718 126.250,231.370 123.782,232.800 122.450 C 234.230 121.119,235.613 120.023,235.873 120.015 C 236.133 120.007,236.452 119.667,236.581 119.261 C 236.710 118.854,237.262 118.318,237.808 118.069 C 238.353 117.821,238.800 117.457,238.800 117.262 C 238.800 117.067,239.640 116.253,240.666 115.454 L 242.531 114.000 269.789 114.000 C 291.940 114.000,297.184 114.100,297.780 114.536 C 299.161 115.545,298.311 117.467,294.897 121.058 C 292.340 123.747,285.341 131.195,283.271 133.429 C 282.981 133.743,282.605 134.000,282.436 134.000 C 282.267 134.000,281.923 134.450,281.673 135.000 C 281.422 135.550,280.943 136.000,280.609 136.000 C 280.274 136.000,280.000 136.173,280.000 136.384 C 280.000 136.595,279.105 137.677,278.012 138.788 C 276.919 139.898,275.833 141.165,275.598 141.604 C 275.364 142.042,274.908 142.400,274.586 142.400 C 274.264 142.400,274.000 142.588,274.000 142.818 C 274.000 143.048,273.533 143.703,272.962 144.274 C 272.392 144.845,269.983 147.402,267.610 149.956 C 265.237 152.510,262.239 155.708,260.948 157.062 C 259.657 158.416,256.800 161.451,254.600 163.806 C 252.400 166.161,249.115 169.608,247.300 171.465 C 245.485 173.323,244.000 175.001,244.000 175.194 C 244.000 175.388,243.649 175.657,243.220 175.794 C 242.792 175.930,242.333 176.383,242.200 176.800 C 242.067 177.217,241.628 177.664,241.223 177.793 C 240.818 177.921,240.390 178.394,240.273 178.843 C 240.155 179.292,239.686 179.757,239.230 179.876 C 238.773 179.996,238.400 180.313,238.400 180.581 C 238.400 180.849,237.905 181.531,237.300 182.098 C 236.695 182.665,235.660 183.733,235.000 184.472 C 231.752 188.109,224.966 195.348,221.300 199.089 C 219.045 201.389,217.200 203.372,217.200 203.496 C 217.200 203.619,216.210 204.679,215.000 205.851 C 213.790 207.023,212.800 208.154,212.800 208.364 C 212.800 208.574,212.459 208.854,212.043 208.986 C 211.627 209.118,211.190 209.594,211.073 210.043 C 210.955 210.492,210.486 210.957,210.030 211.076 C 209.573 211.196,209.200 211.476,209.200 211.699 C 209.200 211.922,208.255 213.052,207.100 214.211 C 205.044 216.274,199.663 222.013,194.162 228.012 C 191.042 231.415,189.711 232.812,183.785 238.897 C 181.483 241.260,179.600 243.363,179.600 243.570 C 179.600 243.777,179.240 244.060,178.800 244.200 C 178.360 244.340,178.000 244.603,178.000 244.785 C 178.000 245.121,175.010 248.383,167.749 255.968 C 163.011 260.918,162.073 261.921,157.800 266.614 C 156.040 268.546,152.755 271.990,150.500 274.267 C 148.245 276.543,146.400 278.588,146.400 278.812 C 146.400 279.035,145.965 279.415,145.434 279.657 C 144.903 279.899,144.376 280.449,144.264 280.878 C 144.151 281.308,143.686 281.757,143.230 281.876 C 142.773 281.996,142.400 282.338,142.400 282.637 C 142.400 282.937,141.957 283.472,141.416 283.827 C 140.874 284.181,140.325 284.806,140.195 285.215 C 140.065 285.624,139.608 286.070,139.180 286.206 C 138.751 286.343,138.400 286.696,138.400 286.992 C 138.400 287.682,135.267 290.000,134.335 290.000 C 132.796 290.000,132.800 290.208,132.800 213.459 C 132.800 172.213,132.691 138.181,132.557 137.833 C 132.347 137.284,131.208 137.200,123.944 137.200 C 111.378 137.200,112.000 137.789,112.000 125.886 C 112.000 116.523,112.245 115.072,113.931 114.455 C 115.799 113.771,163.680 113.878,164.624 114.568 " stroke="none" fill="#fbfbfb" fill-rule="evenodd"></path><path id="path2" d="M359.855 58.329 C 359.618 59.001,359.730 59.498,360.260 60.129 C 360.662 60.608,361.026 61.063,361.069 61.140 C 361.112 61.217,361.352 61.153,361.603 60.998 C 361.911 60.808,361.798 60.534,361.256 60.154 C 360.814 59.844,360.391 59.098,360.317 58.496 C 360.184 57.415,360.177 57.412,359.855 58.329 M39.600 58.727 C 39.600 59.153,39.332 59.724,39.004 59.996 C 38.677 60.268,38.526 60.679,38.668 60.910 C 38.825 61.165,39.217 60.972,39.664 60.421 C 40.481 59.411,40.608 58.575,40.000 58.200 C 39.780 58.064,39.600 58.301,39.600 58.727 M38.800 62.000 C 38.800 62.469,39.107 62.469,40.200 62.000 C 40.909 61.695,40.875 61.653,39.900 61.628 C 39.295 61.613,38.800 61.780,38.800 62.000 M359.200 62.225 C 359.200 62.541,359.560 62.800,360.000 62.800 C 360.725 62.800,360.994 63.227,360.837 64.130 C 360.806 64.311,360.965 64.345,361.190 64.206 C 361.416 64.067,361.600 64.154,361.600 64.400 C 361.600 64.646,361.774 64.740,361.986 64.609 C 362.234 64.455,362.380 112.338,362.393 198.366 C 362.408 293.601,362.540 332.975,362.850 334.481 C 363.091 335.646,363.278 336.960,363.268 337.400 C 363.249 338.159,363.286 338.154,363.995 337.291 L 364.742 336.383 364.871 337.291 C 364.942 337.791,364.951 280.272,364.891 209.471 C 364.817 121.853,364.913 80.822,365.191 80.994 C 365.458 81.160,365.578 80.164,365.537 78.124 C 365.478 75.197,365.457 75.126,365.200 77.000 C 364.999 78.469,364.893 77.513,364.804 73.400 C 364.673 67.356,364.456 67.848,363.659 76.000 L 363.327 79.400 363.189 74.200 C 363.114 71.340,363.059 67.791,363.068 66.312 C 363.077 64.834,362.930 63.720,362.742 63.836 C 362.283 64.119,362.311 63.714,362.814 62.774 C 363.136 62.172,363.098 62.000,362.642 62.000 C 362.319 62.000,361.985 62.405,361.899 62.900 C 361.744 63.793,361.739 63.792,361.315 62.788 C 360.850 61.690,359.200 61.250,359.200 62.225 M37.218 65.300 C 37.147 66.895,36.978 127.780,36.844 200.600 L 36.600 333.000 36.379 203.800 C 36.223 112.585,36.031 74.188,35.724 73.200 C 35.410 72.185,35.250 108.356,35.145 204.800 C 35.065 277.950,35.135 337.971,35.300 338.180 C 35.465 338.389,35.600 338.232,35.600 337.831 C 35.600 337.249,35.714 337.196,36.164 337.570 C 36.771 338.074,37.438 337.509,37.026 336.842 C 36.904 336.645,36.980 335.561,37.194 334.432 C 37.441 333.130,37.592 283.566,37.609 198.744 C 37.631 82.282,37.710 65.033,38.217 64.526 C 38.875 63.868,39.013 63.021,38.400 63.400 C 38.180 63.536,38.000 63.367,38.000 63.024 C 38.000 60.945,37.325 62.909,37.218 65.300 M360.664 73.500 C 360.520 76.965,360.402 137.162,360.401 207.271 C 360.400 320.045,360.331 334.812,359.800 335.343 C 359.142 336.001,358.980 337.600,359.571 337.600 C 361.287 337.600,361.200 344.896,361.200 201.771 C 361.200 127.757,361.138 67.200,361.063 67.200 C 360.987 67.200,360.808 70.035,360.664 73.500 M38.998 205.956 C 39.000 329.212,39.042 337.339,39.681 337.742 C 40.671 338.367,41.145 337.642,40.199 336.950 C 39.404 336.368,39.399 335.752,39.198 205.483 L 38.996 74.600 38.998 205.956 M34.534 78.400 C 34.534 80.050,34.605 80.725,34.691 79.900 C 34.778 79.075,34.778 77.725,34.691 76.900 C 34.605 76.075,34.534 76.750,34.534 78.400 M114.654 116.029 L 113.600 116.858 113.600 125.765 L 113.600 134.672 114.619 135.136 C 115.287 135.440,118.492 135.600,123.942 135.600 C 130.483 135.600,132.412 135.721,133.024 136.168 C 133.786 136.725,133.804 138.081,134.000 212.268 L 134.200 287.800 135.200 287.679 C 136.355 287.538,138.981 284.880,156.600 266.013 C 160.013 262.359,159.330 263.084,166.600 255.390 C 173.604 247.978,174.150 247.401,177.629 243.755 C 179.075 242.240,184.300 236.680,189.241 231.400 C 194.181 226.120,198.669 221.339,199.212 220.775 C 199.755 220.212,202.900 216.885,206.200 213.382 C 209.500 209.880,213.550 205.585,215.200 203.839 C 218.733 200.100,218.612 200.229,222.200 196.387 C 228.272 189.885,235.509 182.201,237.600 180.037 C 238.810 178.784,242.050 175.350,244.800 172.406 C 247.550 169.461,250.070 166.763,250.400 166.410 C 250.730 166.057,252.620 164.063,254.600 161.978 C 256.580 159.894,260.540 155.684,263.400 152.623 C 266.260 149.561,269.140 146.497,269.800 145.814 C 270.460 145.131,273.620 141.788,276.823 138.386 C 280.026 134.984,285.662 129.009,289.349 125.108 C 296.995 117.018,297.723 115.782,295.066 115.399 C 294.150 115.266,282.060 115.213,268.200 115.279 C 238.831 115.420,243.052 114.597,235.510 121.653 C 232.810 124.179,227.630 129.013,224.000 132.394 C 212.582 143.029,207.512 147.761,206.207 149.000 C 201.906 153.086,198.529 156.232,191.630 162.577 C 184.451 169.181,180.162 173.181,177.023 176.200 C 168.750 184.157,165.766 186.505,165.154 185.540 C 164.966 185.243,164.809 169.919,164.806 151.487 C 164.801 123.137,164.711 117.761,164.220 116.587 L 163.641 115.200 139.674 115.200 C 116.034 115.200,115.694 115.211,114.654 116.029 M163.692 116.500 C 163.743 116.555,163.878 132.209,163.992 151.286 C 164.239 192.517,163.724 189.733,170.000 183.748 C 173.757 180.165,176.839 177.275,180.821 173.600 C 183.086 171.510,186.302 168.537,187.969 166.994 C 189.636 165.450,191.882 163.380,192.961 162.394 C 194.039 161.407,195.856 159.700,196.999 158.600 C 198.141 157.500,201.018 154.800,203.392 152.600 C 205.766 150.400,208.657 147.700,209.816 146.600 C 211.764 144.751,216.244 140.606,221.600 135.697 C 225.006 132.576,235.263 122.947,238.849 119.504 C 242.344 116.149,240.004 116.382,269.080 116.497 C 298.757 116.615,296.698 116.272,292.711 120.437 C 286.124 127.319,283.133 130.501,280.000 133.960 C 278.130 136.024,275.160 139.199,273.400 141.016 C 270.553 143.954,265.193 149.607,260.600 154.514 C 259.720 155.454,257.298 158.018,255.218 160.212 C 249.456 166.287,245.308 170.717,242.000 174.323 C 240.350 176.122,237.110 179.557,234.800 181.955 C 232.490 184.353,228.440 188.625,225.800 191.449 C 223.160 194.273,219.380 198.298,217.400 200.395 C 212.949 205.109,204.481 214.152,201.800 217.056 C 200.700 218.247,197.910 221.176,195.600 223.566 C 193.290 225.955,190.593 228.785,189.606 229.855 C 184.863 235.000,174.466 246.080,169.200 251.603 C 167.550 253.334,164.400 256.676,162.200 259.031 C 160.000 261.386,157.306 264.232,156.213 265.356 C 154.356 267.265,146.062 276.146,142.709 279.814 C 137.341 285.686,136.088 286.788,135.537 286.124 C 135.094 285.590,134.965 272.473,134.800 210.953 C 134.610 140.125,134.565 136.393,133.887 135.714 C 133.251 135.078,132.176 134.987,124.028 134.879 C 113.167 134.736,114.413 135.959,114.405 125.431 C 114.401 118.945,114.495 117.758,115.062 117.131 C 115.640 116.493,163.117 115.877,163.692 116.500 M358.860 340.900 C 358.827 341.505,358.445 342.355,358.010 342.790 C 357.576 343.224,357.102 344.079,356.958 344.690 C 356.813 345.300,356.392 346.160,356.021 346.600 C 355.651 347.040,355.041 347.894,354.667 348.497 C 353.183 350.886,347.771 355.440,345.445 356.257 C 345.029 356.403,343.889 356.948,342.912 357.467 C 339.660 359.197,340.679 359.184,200.200 359.180 C 66.108 359.175,59.762 359.117,57.834 357.863 C 57.375 357.565,56.308 357.094,55.462 356.817 C 51.684 355.579,43.200 347.743,43.200 345.492 C 43.200 345.038,43.088 344.778,42.952 344.915 C 42.360 345.507,43.262 348.043,44.191 348.397 C 44.733 348.603,45.195 349.152,45.269 349.678 C 45.353 350.269,45.714 350.645,46.275 350.725 C 46.821 350.802,47.198 351.179,47.275 351.725 C 47.352 352.264,47.730 352.647,48.259 352.722 C 48.732 352.790,49.209 353.193,49.321 353.618 C 49.432 354.043,49.965 354.559,50.507 354.765 C 51.048 354.970,51.596 355.412,51.724 355.747 C 51.853 356.082,52.732 356.575,53.679 356.843 C 54.625 357.112,55.595 357.565,55.833 357.850 C 56.548 358.707,58.322 359.200,60.695 359.200 C 62.269 359.200,63.167 359.409,63.710 359.900 C 64.873 360.952,335.071 360.994,336.258 359.943 C 336.754 359.504,337.956 359.234,339.881 359.131 C 342.125 359.010,342.964 358.788,343.681 358.124 C 344.186 357.655,345.320 357.080,346.200 356.846 C 347.080 356.612,348.027 356.056,348.303 355.610 C 348.580 355.165,349.079 354.800,349.412 354.800 C 349.745 354.800,350.215 354.365,350.457 353.834 C 350.699 353.303,351.249 352.776,351.678 352.664 C 352.108 352.551,352.553 352.103,352.667 351.667 C 352.781 351.231,353.215 350.785,353.632 350.676 C 354.049 350.567,354.559 350.035,354.764 349.493 C 354.970 348.952,355.498 348.415,355.938 348.300 C 356.532 348.145,356.808 347.620,357.012 346.259 C 357.206 344.965,357.509 344.356,358.043 344.187 C 358.914 343.910,359.338 342.601,359.091 340.948 L 358.920 339.800 358.860 340.900 M37.922 341.695 C 37.682 342.951,38.160 344.002,38.532 343.034 C 38.665 342.686,38.628 342.005,38.449 341.521 C 38.132 340.664,38.118 340.668,37.922 341.695 M40.832 342.620 C 40.794 343.587,41.508 344.404,42.380 344.391 C 42.853 344.384,42.799 344.219,42.148 343.691 C 41.680 343.311,41.199 342.730,41.080 342.400 C 40.929 341.981,40.854 342.048,40.832 342.620 " stroke="none" fill="#6c6c6c" fill-rule="evenodd"></path><path id="path3" d="M42.000 52.520 C 42.000 53.026,41.784 53.656,41.520 53.920 C 41.174 54.266,41.168 54.400,41.496 54.400 C 42.046 54.400,42.209 54.137,42.552 52.700 C 42.708 52.048,42.649 51.600,42.408 51.600 C 42.183 51.600,42.000 52.014,42.000 52.520 M357.449 52.700 C 357.825 54.270,358.000 54.323,358.000 52.867 C 358.000 52.170,357.817 51.600,357.592 51.600 C 357.350 51.600,357.292 52.047,357.449 52.700 M39.378 56.432 C 39.721 56.999,39.900 57.566,39.775 57.692 C 39.649 57.817,39.739 58.039,39.973 58.184 C 40.718 58.644,40.433 57.327,39.576 56.344 L 38.753 55.400 39.378 56.432 M360.018 56.178 C 359.754 56.496,359.597 57.099,359.669 57.518 C 359.773 58.123,359.934 58.004,360.449 56.940 C 361.115 55.567,360.876 55.145,360.018 56.178 M360.413 58.876 C 360.406 59.248,360.592 59.671,360.827 59.816 C 361.532 60.252,361.630 59.793,361.009 58.971 C 360.497 58.294,360.424 58.283,360.413 58.876 M37.232 59.900 C 37.205 60.974,37.350 61.200,38.062 61.200 C 38.849 61.200,38.871 61.139,38.314 60.500 C 37.979 60.115,37.605 59.530,37.484 59.200 C 37.362 58.870,37.249 59.185,37.232 59.900 M362.166 59.876 C 361.700 61.119,362.188 62.000,363.340 62.000 C 363.656 62.000,364.018 62.270,364.144 62.600 C 364.431 63.346,363.828 65.072,363.376 64.800 C 363.015 64.583,362.983 66.229,363.196 74.200 C 363.335 79.398,363.335 79.399,363.623 76.200 C 363.780 74.440,364.143 71.560,364.428 69.800 C 365.254 64.705,365.124 62.586,363.906 61.292 C 363.341 60.691,362.815 59.866,362.739 59.459 C 362.630 58.876,362.507 58.965,362.166 59.876 M35.862 62.331 C 35.498 62.734,35.200 63.224,35.200 63.420 C 35.200 63.617,35.469 63.394,35.797 62.926 C 36.212 62.333,36.658 62.142,37.260 62.300 C 37.853 62.455,38.035 62.380,37.839 62.063 C 37.421 61.387,36.618 61.496,35.862 62.331 M362.788 63.014 C 362.112 63.829,362.429 64.060,363.325 63.406 C 363.722 63.115,363.877 62.772,363.669 62.643 C 363.461 62.514,363.065 62.681,362.788 63.014 M359.282 63.500 C 359.347 63.885,359.648 64.395,359.952 64.632 C 360.343 64.939,360.427 65.521,360.241 66.632 C 360.097 67.495,359.813 69.370,359.610 70.800 C 359.093 74.446,359.075 335.600,359.592 335.600 C 360.379 335.600,360.408 331.631,360.578 200.800 C 360.673 127.650,360.829 66.900,360.924 65.800 C 361.135 63.370,360.948 62.800,359.940 62.800 C 359.424 62.800,359.204 63.034,359.282 63.500 M364.593 65.640 C 364.385 66.870,364.214 67.167,363.966 66.725 C 363.766 66.367,363.818 65.605,364.095 64.874 C 364.721 63.213,364.945 63.558,364.593 65.640 M34.909 66.000 C 34.909 66.990,34.987 67.395,35.082 66.900 C 35.178 66.405,35.178 65.595,35.082 65.100 C 34.987 64.605,34.909 65.010,34.909 66.000 M36.756 66.000 C 36.670 66.550,36.682 68.260,36.781 69.800 L 36.963 72.600 37.200 69.800 C 37.331 68.260,37.319 66.550,37.175 66.000 L 36.911 65.000 36.756 66.000 M365.051 72.461 C 364.862 75.465,364.794 78.165,364.899 78.461 C 365.178 79.250,365.687 71.775,365.529 69.200 C 365.440 67.737,365.280 68.829,365.051 72.461 M35.238 69.600 C 35.227 70.590,35.433 72.120,35.694 73.000 C 36.055 74.214,36.222 105.773,36.389 203.800 L 36.609 333.000 36.658 203.200 C 36.699 92.381,36.573 65.164,36.033 68.800 C 35.968 69.235,35.849 69.180,35.600 68.600 C 35.339 67.992,35.252 68.232,35.238 69.600 M38.942 71.400 C 38.941 73.380,39.008 74.240,39.092 73.312 C 39.176 72.384,39.177 70.764,39.095 69.712 C 39.012 68.660,38.943 69.420,38.942 71.400 M34.475 201.200 C 34.428 287.743,34.538 333.193,34.795 332.800 C 35.245 332.112,35.270 76.908,34.821 72.000 C 34.670 70.350,34.514 128.490,34.475 201.200 M39.398 205.915 C 39.400 321.494,39.469 336.472,40.000 336.802 C 40.858 337.334,41.029 336.516,40.242 335.646 C 39.658 335.001,39.592 323.510,39.499 205.169 L 39.397 75.400 39.398 205.915 M364.806 206.476 C 364.810 286.954,364.952 332.416,365.200 332.800 C 365.451 333.188,365.590 288.867,365.594 207.324 C 365.598 123.698,365.465 81.164,365.200 81.000 C 364.934 80.835,364.802 122.761,364.806 206.476 M115.200 115.084 C 113.228 115.809,113.200 115.957,113.200 125.613 C 113.200 136.933,112.042 135.766,123.429 135.921 C 131.010 136.024,132.416 136.137,132.868 136.682 C 133.305 137.208,133.436 150.848,133.600 212.828 C 133.710 254.356,133.918 288.452,134.063 288.596 C 134.591 289.125,136.951 287.468,139.345 284.887 C 140.695 283.431,142.070 281.959,142.400 281.615 C 143.670 280.291,156.846 266.302,161.800 261.019 C 164.660 257.968,167.900 254.536,169.000 253.391 C 170.100 252.246,173.250 248.907,176.000 245.972 C 178.750 243.036,181.540 240.077,182.200 239.396 C 186.579 234.877,198.264 222.213,198.559 221.665 C 198.756 221.299,198.830 221.090,198.723 221.200 C 198.616 221.310,194.418 225.810,189.393 231.200 C 184.369 236.590,179.075 242.240,177.629 243.755 C 174.150 247.401,173.604 247.978,166.600 255.390 C 159.330 263.084,160.013 262.359,156.600 266.013 C 138.981 284.880,136.355 287.538,135.200 287.679 L 134.200 287.800 134.000 212.268 C 133.804 138.081,133.786 136.725,133.024 136.168 C 132.412 135.721,130.483 135.600,123.942 135.600 C 118.492 135.600,115.287 135.440,114.619 135.136 L 113.600 134.672 113.600 125.765 L 113.600 116.858 114.654 116.029 C 115.694 115.211,116.034 115.200,139.673 115.200 L 163.639 115.200 164.204 116.500 C 164.514 117.215,164.776 117.525,164.784 117.189 C 164.793 116.853,164.520 116.178,164.177 115.689 L 163.555 114.800 139.677 114.832 C 126.545 114.849,115.530 114.962,115.200 115.084 M242.720 115.128 C 241.728 115.524,237.845 118.834,237.004 120.000 C 236.607 120.550,237.253 120.086,238.441 118.970 C 242.613 115.047,239.635 115.416,268.200 115.279 C 282.060 115.213,294.150 115.266,295.066 115.399 C 297.723 115.782,296.995 117.018,289.349 125.108 C 285.662 129.009,280.026 134.984,276.823 138.386 C 273.620 141.788,270.460 145.131,269.800 145.814 C 269.140 146.497,266.260 149.561,263.400 152.623 C 260.540 155.684,256.661 159.811,254.781 161.794 C 252.900 163.778,250.110 166.741,248.581 168.381 C 247.051 170.020,245.440 171.740,245.000 172.202 C 241.707 175.662,239.555 178.070,240.355 177.400 C 240.881 176.960,242.321 175.533,243.555 174.229 C 244.790 172.925,246.070 171.574,246.400 171.227 C 246.730 170.880,249.868 167.537,253.374 163.798 C 256.880 160.059,262.280 154.315,265.374 151.033 C 268.468 147.751,271.450 144.584,272.000 143.997 C 272.550 143.409,275.624 140.154,278.831 136.764 C 299.260 115.168,298.889 115.638,295.950 115.050 C 294.256 114.711,243.577 114.786,242.720 115.128 M234.939 121.700 C 234.497 122.195,233.231 123.410,232.127 124.400 C 230.507 125.852,221.469 134.243,218.770 136.800 C 218.422 137.130,217.062 138.390,215.748 139.600 C 212.134 142.927,202.927 151.539,200.567 153.800 C 197.597 156.644,195.357 158.722,192.600 161.189 C 190.188 163.349,181.702 171.272,177.810 175.000 C 168.255 184.151,166.034 185.912,165.300 184.922 C 164.742 184.169,164.618 184.694,165.154 185.540 C 165.766 186.505,168.750 184.157,177.023 176.200 C 180.162 173.181,184.451 169.181,191.630 162.577 C 198.529 156.232,201.906 153.086,206.207 149.000 C 208.184 147.122,228.895 127.816,232.606 124.391 C 234.959 122.220,236.270 120.800,235.921 120.800 C 235.824 120.800,235.382 121.205,234.939 121.700 M234.523 183.300 C 231.572 186.367,227.285 190.916,222.372 196.193 C 218.024 200.864,216.035 202.971,206.262 213.272 C 202.996 216.714,200.045 219.951,199.705 220.465 C 199.364 220.979,199.786 220.649,200.643 219.732 C 202.440 217.806,213.743 205.895,215.136 204.457 C 215.651 203.926,217.263 202.211,218.718 200.646 C 225.081 193.802,231.463 186.979,232.211 186.222 C 234.538 183.865,237.696 180.400,237.518 180.400 C 237.406 180.400,236.058 181.705,234.523 183.300 M358.909 338.400 C 358.909 339.390,358.987 339.795,359.082 339.300 C 359.178 338.805,359.178 337.995,359.082 337.500 C 358.987 337.005,358.909 337.410,358.909 338.400 M40.834 340.874 C 40.777 342.001,41.498 343.475,42.247 343.763 C 42.922 344.022,42.922 343.998,42.254 343.260 C 41.869 342.834,41.400 341.972,41.211 341.343 C 41.023 340.714,40.853 340.503,40.834 340.874 M358.195 341.136 C 357.978 341.540,357.299 342.845,356.687 344.036 C 354.699 347.901,354.469 348.209,351.315 351.240 C 347.625 354.784,342.287 357.631,337.967 358.357 C 334.520 358.937,65.778 358.986,62.200 358.407 C 56.547 357.494,45.200 350.553,45.200 348.009 C 45.200 347.848,44.750 347.231,44.200 346.638 C 42.844 345.174,42.926 345.990,44.300 347.632 C 48.153 352.233,52.571 355.869,55.462 356.817 C 56.308 357.094,57.375 357.565,57.834 357.863 C 59.762 359.117,66.108 359.175,200.200 359.180 C 340.679 359.184,339.660 359.197,342.912 357.467 C 343.889 356.948,345.029 356.403,345.445 356.257 C 347.771 355.440,353.183 350.886,354.667 348.497 C 355.041 347.894,355.651 347.040,356.021 346.600 C 356.392 346.160,356.813 345.300,356.958 344.690 C 357.102 344.079,357.576 343.224,358.010 342.790 C 358.445 342.355,358.800 341.640,358.800 341.200 C 358.800 340.211,358.697 340.200,358.195 341.136 " stroke="none" fill="#7c7c7c" fill-rule="evenodd"></path><path id="path4" d="M355.082 52.076 C 355.203 52.584,355.584 53.225,355.928 53.500 C 356.271 53.775,356.422 54.000,356.262 54.000 C 356.103 54.000,356.137 54.315,356.339 54.700 C 356.542 55.085,356.836 57.200,356.994 59.400 C 357.152 61.600,357.445 63.708,357.646 64.084 C 357.865 64.494,358.008 118.602,358.003 198.586 L 357.994 332.403 357.149 336.302 C 354.798 347.150,347.408 354.640,337.131 356.589 C 332.125 357.539,67.959 357.515,62.831 356.564 C 52.094 354.574,42.301 345.684,41.189 336.917 C 40.947 335.002,40.801 283.170,40.799 197.931 C 40.797 110.260,40.658 62.000,40.407 62.000 C 38.973 62.000,38.723 63.813,39.166 70.995 C 39.462 75.798,39.600 118.777,39.600 206.564 C 39.600 314.749,39.687 335.174,40.147 335.556 C 40.471 335.825,40.775 337.157,40.896 338.837 C 41.038 340.827,41.342 341.996,41.921 342.779 C 42.374 343.391,43.018 344.546,43.352 345.346 C 43.686 346.146,44.136 346.800,44.353 346.800 C 44.569 346.800,44.856 347.145,44.989 347.566 C 46.120 351.128,56.115 357.424,62.200 358.407 C 65.778 358.986,334.520 358.937,337.967 358.357 C 342.287 357.631,347.625 354.784,351.315 351.240 C 354.439 348.238,354.696 347.896,356.609 344.200 C 357.178 343.100,357.949 341.660,358.322 341.000 C 358.955 339.880,359.013 330.747,359.200 204.400 C 359.358 97.108,359.504 68.819,359.900 68.126 C 360.602 66.900,360.528 64.911,359.764 64.484 C 359.414 64.288,359.144 64.009,359.164 63.864 C 359.631 60.421,359.115 55.994,358.220 55.769 C 357.360 55.553,357.224 55.270,357.120 53.462 C 357.009 51.560,356.917 51.390,355.931 51.276 C 354.996 51.168,354.890 51.268,355.082 52.076 M358.446 53.076 C 358.390 54.143,359.025 54.633,359.354 53.777 C 359.484 53.437,359.427 53.260,359.226 53.384 C 359.025 53.508,358.778 53.293,358.677 52.905 C 358.533 52.355,358.483 52.392,358.446 53.076 M360.614 56.643 C 360.037 57.220,360.053 57.391,360.785 58.576 C 361.228 59.292,361.472 59.995,361.328 60.139 C 361.184 60.282,361.273 60.400,361.526 60.400 C 362.461 60.400,362.633 57.307,361.743 56.476 C 361.363 56.121,361.097 56.160,360.614 56.643 M38.900 57.798 C 38.625 58.111,38.382 58.599,38.360 58.883 C 38.338 59.167,38.176 58.950,38.000 58.400 C 37.706 57.480,37.677 57.470,37.640 58.267 C 37.589 59.365,37.979 60.400,38.443 60.400 C 38.639 60.400,38.779 60.265,38.753 60.100 C 38.627 59.303,38.840 58.778,39.200 59.000 C 39.427 59.140,39.600 58.804,39.600 58.224 C 39.600 57.048,39.574 57.033,38.900 57.798 M363.002 62.397 C 362.793 62.734,362.832 62.827,363.111 62.655 C 363.349 62.508,363.658 62.570,363.796 62.793 C 363.934 63.017,363.878 63.200,363.670 63.200 C 363.463 63.200,363.207 63.530,363.102 63.933 C 362.985 64.380,363.123 64.667,363.455 64.667 C 363.755 64.667,364.014 64.382,364.032 64.033 C 364.050 63.655,364.141 63.592,364.258 63.878 C 364.364 64.141,364.261 64.713,364.027 65.149 C 363.794 65.585,363.729 66.270,363.883 66.671 C 364.194 67.480,364.678 66.305,364.760 64.544 C 364.815 63.359,363.443 61.683,363.002 62.397 M36.085 62.900 C 35.443 63.677,35.082 66.246,35.387 67.872 C 35.585 68.927,35.761 69.186,36.009 68.785 C 36.235 68.420,36.408 69.056,36.508 70.613 C 36.650 72.813,36.886 68.330,36.842 64.286 C 36.835 63.673,37.001 63.277,37.210 63.406 C 37.420 63.536,37.484 63.363,37.353 63.021 C 37.065 62.270,36.639 62.229,36.085 62.900 M364.928 70.000 C 364.928 71.430,365.001 72.015,365.089 71.300 C 365.178 70.585,365.178 69.415,365.089 68.700 C 365.001 67.985,364.928 68.570,364.928 70.000 M34.937 71.400 C 34.939 73.160,35.009 73.830,35.093 72.889 C 35.178 71.949,35.177 70.509,35.091 69.689 C 35.005 68.870,34.936 69.640,34.937 71.400 M113.931 114.455 C 112.245 115.072,112.000 116.523,112.000 125.886 C 112.000 137.789,111.378 137.200,123.944 137.200 C 131.208 137.200,132.347 137.284,132.557 137.833 C 132.691 138.181,132.800 172.213,132.800 213.459 C 132.800 290.208,132.796 290.000,134.335 290.000 C 135.267 290.000,138.400 287.682,138.400 286.992 C 138.400 286.696,138.751 286.343,139.180 286.206 C 139.608 286.070,140.065 285.624,140.195 285.215 C 140.325 284.806,140.874 284.181,141.416 283.827 C 141.957 283.472,142.400 282.937,142.400 282.637 C 142.400 282.338,142.773 281.996,143.230 281.876 C 143.686 281.757,144.151 281.308,144.264 280.878 C 144.376 280.449,144.903 279.899,145.434 279.657 C 145.965 279.415,146.400 279.035,146.400 278.812 C 146.400 278.588,148.245 276.543,150.500 274.267 C 152.755 271.990,156.040 268.546,157.800 266.614 C 162.073 261.921,163.011 260.918,167.749 255.968 C 175.010 248.383,178.000 245.121,178.000 244.785 C 178.000 244.603,178.360 244.340,178.800 244.200 C 179.240 244.060,179.600 243.777,179.600 243.570 C 179.600 243.363,181.483 241.260,183.785 238.897 C 189.711 232.812,191.042 231.415,194.162 228.012 C 199.663 222.013,205.044 216.274,207.100 214.211 C 208.255 213.052,209.200 211.922,209.200 211.699 C 209.200 211.476,209.573 211.196,210.030 211.076 C 210.486 210.957,210.955 210.492,211.073 210.043 C 211.190 209.594,211.627 209.118,212.043 208.986 C 212.459 208.854,212.800 208.574,212.800 208.364 C 212.800 208.154,213.790 207.023,215.000 205.851 C 216.210 204.679,217.200 203.619,217.200 203.496 C 217.200 203.372,219.045 201.389,221.300 199.089 C 224.966 195.348,231.752 188.109,235.000 184.472 C 235.660 183.733,236.695 182.665,237.300 182.098 C 237.905 181.531,238.400 180.849,238.400 180.581 C 238.400 180.313,238.773 179.996,239.230 179.876 C 239.686 179.757,240.155 179.292,240.273 178.843 C 240.390 178.394,240.818 177.921,241.223 177.793 C 241.628 177.664,242.067 177.217,242.200 176.800 C 242.333 176.383,242.792 175.930,243.220 175.794 C 243.649 175.657,244.000 175.388,244.000 175.194 C 244.000 175.001,245.485 173.323,247.300 171.465 C 249.115 169.608,252.400 166.161,254.600 163.806 C 256.800 161.451,259.657 158.416,260.948 157.062 C 262.239 155.708,265.237 152.510,267.610 149.956 C 269.983 147.402,272.392 144.845,272.962 144.274 C 273.533 143.703,274.000 143.048,274.000 142.818 C 274.000 142.588,274.264 142.400,274.586 142.400 C 274.908 142.400,275.364 142.042,275.598 141.604 C 275.833 141.165,276.919 139.898,278.012 138.788 C 279.105 137.677,280.000 136.595,280.000 136.384 C 280.000 136.173,280.274 136.000,280.609 136.000 C 280.943 136.000,281.422 135.550,281.673 135.000 C 281.923 134.450,282.267 134.000,282.436 134.000 C 282.605 134.000,282.981 133.743,283.271 133.429 C 285.341 131.195,292.340 123.747,294.897 121.058 C 298.311 117.467,299.161 115.545,297.780 114.536 C 297.184 114.100,291.940 114.000,269.789 114.000 L 242.531 114.000 240.666 115.454 C 239.640 116.253,238.800 117.067,238.800 117.262 C 238.800 117.457,238.353 117.821,237.808 118.069 C 237.262 118.318,236.710 118.854,236.581 119.261 C 236.452 119.667,236.133 120.007,235.873 120.015 C 235.613 120.023,234.230 121.119,232.800 122.450 C 231.370 123.782,228.718 126.250,226.908 127.935 C 225.097 129.621,221.787 132.762,219.552 134.916 C 217.317 137.070,215.153 139.011,214.744 139.230 C 214.335 139.449,214.000 139.892,214.000 140.214 C 214.000 140.536,213.811 140.800,213.579 140.800 C 213.218 140.800,211.722 142.112,207.855 145.820 C 207.385 146.271,204.840 148.630,202.200 151.062 C 199.560 153.495,196.369 156.456,195.109 157.643 C 193.849 158.829,191.728 160.790,190.396 162.000 C 189.064 163.210,187.754 164.434,187.487 164.719 C 187.219 165.005,186.762 165.455,186.471 165.719 C 186.180 165.984,184.581 167.512,182.917 169.115 C 181.253 170.718,179.556 172.209,179.146 172.429 C 178.736 172.649,178.400 173.092,178.400 173.414 C 178.400 173.736,178.218 174.000,177.996 174.000 C 177.774 174.000,177.071 174.495,176.433 175.100 C 170.605 180.627,167.747 183.035,166.761 183.248 L 165.613 183.496 165.507 149.316 C 165.403 116.007,165.380 115.121,164.624 114.568 C 163.680 113.878,115.799 113.771,113.931 114.455 M164.177 115.689 C 164.729 116.477,164.800 120.437,164.800 150.413 C 164.800 187.112,164.751 186.294,166.850 184.898 C 167.857 184.228,173.422 179.202,177.810 175.000 C 181.702 171.272,190.188 163.349,192.600 161.189 C 195.357 158.722,197.597 156.644,200.567 153.800 C 202.927 151.539,212.134 142.927,215.748 139.600 C 217.062 138.390,218.424 137.130,218.776 136.800 C 219.127 136.470,220.851 134.862,222.607 133.228 C 224.363 131.593,227.160 128.983,228.823 127.428 C 235.771 120.928,240.272 116.812,241.390 115.934 L 242.580 115.000 268.190 114.881 C 295.293 114.754,297.209 114.823,297.186 115.925 C 297.155 117.396,297.197 117.349,278.831 136.764 C 275.624 140.154,272.550 143.409,272.000 143.997 C 271.450 144.584,268.468 147.751,265.374 151.033 C 262.280 154.315,256.880 160.059,253.374 163.798 C 249.868 167.537,246.730 170.878,246.400 171.223 C 246.070 171.568,243.100 174.706,239.800 178.197 C 236.500 181.688,233.260 185.113,232.600 185.808 C 230.993 187.500,222.052 197.059,218.582 200.795 C 216.150 203.413,211.123 208.726,207.400 212.612 C 204.820 215.306,194.627 226.121,188.847 232.299 C 185.502 235.873,182.369 239.210,181.883 239.714 C 181.397 240.217,178.750 243.032,176.000 245.969 C 173.250 248.906,170.100 252.246,169.000 253.391 C 167.900 254.536,164.660 257.968,161.800 261.019 C 156.846 266.302,143.670 280.291,142.400 281.615 C 142.070 281.959,140.695 283.431,139.345 284.887 C 136.951 287.468,134.591 289.125,134.063 288.596 C 133.918 288.452,133.710 254.356,133.600 212.828 C 133.436 150.848,133.305 137.208,132.868 136.682 C 132.416 136.137,131.010 136.024,123.429 135.921 C 116.608 135.828,114.366 135.671,113.860 135.251 C 112.831 134.395,112.867 116.815,113.900 115.914 C 115.099 114.870,115.234 114.864,139.677 114.832 L 163.555 114.800 164.177 115.689 " stroke="none" fill="#a8a8a8" fill-rule="evenodd"></path></g></svg>